<svg xmlns="http://www.w3.org/2000/svg" width="1440" height="960" viewBox="0 0 1440 960" role="img" aria-label="Сопоставление объектов и тарифов"><title>Сопоставление объектов и тарифов</title><desc>Редактируемый макет Кей Календаря. Все данные вымышлены. Не является приложением.</desc><rect x="0" y="0" width="1440" height="960" rx="0" fill="#F4F5F7"/><rect x="0" y="0" width="184" height="960" rx="0" fill="#EDEFEF"/><rect x="184" y="0" width="1256" height="64" rx="0" fill="#FFFFFF"/><path d="M184 64H1440" stroke="#D6DDE3" stroke-width="1"/><rect x="22" y="20" width="26" height="26" rx="5" fill="#2458A6"/><rect x="27" y="27" width="16" height="13" rx="1" fill="none" stroke="#FFFFFF"/><path d="M27 31H43" stroke="#FFFFFF" stroke-width="1"/><path d="M31 24L31 29" stroke="#FFFFFF" stroke-width="1"/><path d="M39 24L39 29" stroke="#FFFFFF" stroke-width="1"/><text x="57" y="30" fill="#202B36" font-family="Golos Text" font-size="15" font-weight="600">Кей</text><text x="57" y="48" fill="#202B36" font-family="Golos Text" font-size="15" font-weight="600">Календарь</text><text x="216" y="39" fill="#202B36" font-family="Golos Text" font-size="14" font-weight="500">Дом у парка</text><path d="M312.0 33l4 4 4-4" fill="none" stroke="#202B36" stroke-width="1.5"/><text x="1155" y="39" fill="#596775" font-family="Golos Text" font-size="12" font-weight="400">Поиск  Ctrl K</text><text x="1357" y="40" fill="#2458A6" font-family="Golos Text" font-size="13" font-weight="600">МК</text><text x="23" y="102" fill="#596775" font-family="Golos Text" font-size="13" font-weight="400">Шахматка</text><text x="23" y="142" fill="#596775" font-family="Golos Text" font-size="13" font-weight="400">Бронирования</text><text x="23" y="182" fill="#596775" font-family="Golos Text" font-size="13" font-weight="400">Объекты</text><text x="23" y="222" fill="#596775" font-family="Golos Text" font-size="13" font-weight="400">Цены и правила</text><text x="23" y="262" fill="#596775" font-family="Golos Text" font-size="13" font-weight="400">Гости</text><text x="23" y="302" fill="#596775" font-family="Golos Text" font-size="13" font-weight="400">Финансы</text><text x="23" y="342" fill="#596775" font-family="Golos Text" font-size="13" font-weight="400">Отчёты</text><text x="23" y="382" fill="#596775" font-family="Golos Text" font-size="13" font-weight="400">Задачи</text><rect x="10" y="400" width="164" height="34" rx="4" fill="#EAF0FA"/><rect x="10" y="400" width="3" height="34" rx="0" fill="#2458A6"/><text x="23" y="422" fill="#2458A6" font-family="Golos Text" font-size="13" font-weight="500">Каналы</text><text x="23" y="462" fill="#596775" font-family="Golos Text" font-size="13" font-weight="400">Сообщения</text><text x="23" y="502" fill="#596775" font-family="Golos Text" font-size="13" font-weight="400">Сотрудники</text><text x="23" y="542" fill="#596775" font-family="Golos Text" font-size="13" font-weight="400">Настройки</text><path d="M20 812H164" stroke="#D6DDE3" stroke-width="1"/><text x="22" y="845" fill="#596775" font-family="Golos Text" font-size="12" font-weight="400">База знаний</text><text x="22" y="882" fill="#202B36" font-family="Golos Text" font-size="13" font-weight="400">Марина К.</text><text x="22" y="904" fill="#596775" font-family="Golos Text" font-size="11" font-weight="400">Администратор</text><text x="216" y="108" fill="#202B36" font-family="Golos Text" font-size="26" font-weight="600">Сопоставление объектов и тарифов</text><text x="216" y="137" fill="#596775" font-family="Golos Text" font-size="13" font-weight="400">Дом у парка · демонстрационное рабочее пространство</text><path d="M216 893H1408" stroke="#D6DDE3" stroke-width="1"/><text x="216" y="919" fill="#596775" font-family="Golos Text" font-size="12" font-weight="400">SCR-INT-02  /  Сопоставление объектов, тарифов и источников истины; однозначная карта и источник каждого значения</text><text x="216" y="941" fill="#596775" font-family="Golos Text" font-size="10" font-weight="400">Демонстрационные данные • Исходник SVG редактируется по слоям • Требования связаны в screens.json</text><rect x="216" y="165" width="88" height="36" rx="5" fill="#FFFFFF" stroke="#D6DDE3"/><text x="231" y="188.0" fill="#202B36" font-family="Golos Text" font-size="13" font-weight="500">Обзор</text><rect x="320" y="165" width="88" height="36" rx="5" fill="#FFFFFF" stroke="#D6DDE3"/><text x="335" y="188.0" fill="#202B36" font-family="Golos Text" font-size="13" font-weight="500">История</text><rect x="216" y="225" width="828" height="646" rx="5" fill="#FFFFFF" stroke="#D6DDE3"/><text x="240" y="261" fill="#202B36" font-family="Golos Text" font-size="18" font-weight="600">Сопоставление канала</text><text x="240.0" y="305" fill="#596775" font-family="Golos Text" font-size="12" font-weight="500">Канал</text><rect x="240.0" y="315" width="364.0" height="40" rx="4" fill="#FFFFFF" stroke="#D6DDE3"/><text x="252.0" y="341" fill="#202B36" font-family="Golos Text" font-size="14" font-weight="400">Суточно.ру</text><text x="632.0" y="305" fill="#596775" font-family="Golos Text" font-size="12" font-weight="500">Объект Кей Календаря</text><rect x="632.0" y="315" width="364.0" height="40" rx="4" fill="#FFFFFF" stroke="#D6DDE3"/><text x="644.0" y="341" fill="#202B36" font-family="Golos Text" font-size="14" font-weight="400">Парковая 12 · 101</text><text x="240.0" y="393" fill="#596775" font-family="Golos Text" font-size="12" font-weight="500">Внешний объект</text><rect x="240.0" y="403" width="364.0" height="40" rx="4" fill="#FFFFFF" stroke="#D6DDE3"/><text x="252.0" y="429" fill="#202B36" font-family="Golos Text" font-size="14" font-weight="400">Выбрать из подтверждённого списка</text><text x="632.0" y="393" fill="#596775" font-family="Golos Text" font-size="12" font-weight="500">Внутренний тариф</text><rect x="632.0" y="403" width="364.0" height="40" rx="4" fill="#FFFFFF" stroke="#D6DDE3"/><text x="644.0" y="429" fill="#202B36" font-family="Golos Text" font-size="14" font-weight="400">Стандартный</text><text x="240.0" y="481" fill="#596775" font-family="Golos Text" font-size="12" font-weight="500">Внешний тариф</text><rect x="240.0" y="491" width="364.0" height="40" rx="4" fill="#FFFFFF" stroke="#D6DDE3"/><text x="252.0" y="517" fill="#202B36" font-family="Golos Text" font-size="14" font-weight="400">Базовый</text><text x="632.0" y="481" fill="#596775" font-family="Golos Text" font-size="12" font-weight="500">Источник цены</text><rect x="632.0" y="491" width="364.0" height="40" rx="4" fill="#FFFFFF" stroke="#D6DDE3"/><text x="644.0" y="517" fill="#202B36" font-family="Golos Text" font-size="14" font-weight="400">Кей Календарь</text><text x="240.0" y="569" fill="#596775" font-family="Golos Text" font-size="12" font-weight="500">Источник внешней брони</text><rect x="240.0" y="579" width="364.0" height="40" rx="4" fill="#FFFFFF" stroke="#D6DDE3"/><text x="252.0" y="605" fill="#202B36" font-family="Golos Text" font-size="14" font-weight="400">Канал</text><text x="632.0" y="569" fill="#596775" font-family="Golos Text" font-size="12" font-weight="500">Наценка</text><rect x="632.0" y="579" width="364.0" height="40" rx="4" fill="#FFFFFF" stroke="#D6DDE3"/><text x="644.0" y="605" fill="#202B36" font-family="Golos Text" font-size="14" font-weight="400">10 %</text><text x="240" y="665" fill="#596775" font-family="Golos Text" font-size="13" font-weight="400">До проверки доступности и прав синхронизация не запускается. Внешние ID не выводятся из названий объектов.</text><rect x="240" y="698" width="198" height="36" rx="5" fill="#2458A6"/><text x="255" y="721.0" fill="#FFFFFF" font-family="Golos Text" font-size="13" font-weight="500">Проверить соответствие</text><rect x="456" y="698" width="88" height="36" rx="5" fill="#FFFFFF" stroke="#D6DDE3"/><text x="471" y="721.0" fill="#202B36" font-family="Golos Text" font-size="13" font-weight="500">Отмена</text><text x="1076" y="261" fill="#202B36" font-family="Golos Text" font-size="16" font-weight="500">Контекст</text><text x="1076" y="308" fill="#596775" font-family="Golos Text" font-size="13" font-weight="400">Организация: Дом у парка</text><text x="1076" y="368" fill="#596775" font-family="Golos Text" font-size="13" font-weight="400">Ответственный: Марина К.</text><text x="1076" y="428" fill="#596775" font-family="Golos Text" font-size="13" font-weight="400">Последнее изменение: 10:42</text><text x="1076" y="488" fill="#596775" font-family="Golos Text" font-size="13" font-weight="400">История изменений доступна</text><rect x="1068" y="618" width="340" height="198" rx="5" fill="#EAF0FA"/><text x="1090" y="652" fill="#2458A6" font-family="Golos Text" font-size="15" font-weight="500">Нужна помощь?</text><text x="1090" y="686" fill="#2458A6" font-family="Golos Text" font-size="13" font-weight="400">Проверьте итог и связанные записи перед</text><text x="1090" y="708" fill="#2458A6" font-family="Golos Text" font-size="13" font-weight="400">подтверждением. Откройте историю, если</text><text x="1090" y="730" fill="#2458A6" font-family="Golos Text" font-size="13" font-weight="400">нужно найти предыдущие значения.</text></svg>